<svg width="801" height="724" viewBox="0 0 801 724" fill="none" xmlns="http://www.w3.org/2000/svg">
<path d="M396.023 79.0533C375.903 46.9607 340.696 27.46 302.814 27.429C264.933 27.3954 229.694 46.8342 209.512 78.8933L164.286 150.751C161.067 155.866 160.014 162.053 161.354 167.945C162.698 173.839 166.327 178.957 171.442 182.173L266.93 242.19C272.051 245.408 278.242 246.459 284.137 245.109C290.031 243.759 295.149 240.12 298.36 234.995L396.023 79.0533Z" fill="#009F00"/>
<path d="M414.053 49.1674L413.996 49.1364L512.919 206.91L501.644 214.087C498.882 215.845 497.342 219.007 497.656 222.266C497.971 225.526 500.09 228.334 503.138 229.529L647.804 286.299C650.392 287.316 653.311 287.032 655.657 285.538C658.001 284.043 659.492 281.519 659.668 278.745L669.46 123.645C669.666 120.375 668.019 117.27 665.201 115.603C662.38 113.938 658.865 113.995 656.104 115.755L646.542 121.843L590.164 31.9378C577.706 12.0654 555.898 0 532.443 0H340.244C370.38 5.27779 397.291 22.9255 414.053 49.1674Z" fill="#009F00"/>
<path d="M689.747 514.132C727.626 514.178 762.87 494.753 783.06 462.699C803.245 430.647 805.544 390.472 789.148 356.325L752.376 279.785C749.759 274.337 745.086 270.153 739.382 268.153C733.678 266.153 727.412 266.502 721.967 269.124L620.336 318.02C614.888 320.642 610.704 325.324 608.707 331.033C606.712 336.741 607.071 343.01 609.7 348.456L689.747 514.132Z" fill="#009F00"/>
<path d="M705.449 545.303L705.506 545.267L519.284 545.048L519.209 531.684C519.191 528.409 517.335 525.423 514.409 523.955C511.482 522.489 507.977 522.788 505.342 524.732L380.291 616.991C378.053 618.643 376.739 621.262 376.755 624.044C376.77 626.824 378.112 629.431 380.371 631.054L506.46 721.891C509.115 723.806 512.623 724.067 515.534 722.565C518.445 721.063 520.267 718.056 520.249 714.781L520.184 703.444L626.308 703.567C649.765 703.596 671.584 691.556 684.067 671.697L786.361 508.981C765.851 531.689 736.587 545.081 705.449 545.303Z" fill="#009F00"/>
<path d="M155.162 649.667C175.187 681.819 210.335 701.425 248.217 701.57L333.126 701.9C339.17 701.923 344.977 699.544 349.266 695.285C353.556 691.027 355.977 685.238 355.995 679.194L356.359 566.414C356.379 560.367 353.992 554.558 349.726 550.271C345.46 545.985 339.661 543.569 333.616 543.561L149.619 543.262C133.04 577.323 135.135 617.512 155.162 649.667Z" fill="#009F00"/>
<path d="M208.26 382.164C211.218 383.576 214.712 383.212 217.311 381.217C219.91 379.224 221.17 375.939 220.571 372.721L192.146 219.941C191.637 217.208 189.851 214.882 187.345 213.682C184.837 212.482 181.907 212.554 179.458 213.876L42.695 287.675C39.8122 289.231 38.047 292.271 38.1295 295.544C38.2095 298.819 40.1219 301.768 43.0744 303.183L53.3048 308.076L6.87055 403.497C-3.39599 424.588 -2.08751 449.477 10.3314 469.375L112.081 632.429C100.604 604.069 101.326 571.896 114.716 543.783L114.729 543.848L196.205 376.396L208.26 382.164Z" fill="#009F00"/>
<path d="M396 541C478.843 541 546 473.843 546 391C546 308.157 478.843 241 396 241C313.157 241 246 308.157 246 391C246 473.843 313.157 541 396 541Z" fill="#59D8FF"/>
<mask id="path-8-inside-1_205_172" fill="white">
<path d="M396 241C313.212 241 246 308.212 246 391C246 473.788 313.212 541 396 541C478.638 541 545.733 474.028 545.976 391.444C545.991 391.296 545.999 391.148 546 391C546 390.867 545.994 390.734 545.982 390.601C545.766 307.996 478.656 241 396 241ZM396 250C402.573 250 409.032 250.486 415.365 251.353C415.095 251.713 415.833 252.523 418.413 254.002L421.482 255.046C425.322 254.569 423.687 253.255 421.152 252.28C430.42 253.944 439.495 256.54 448.242 260.026C445.818 260.572 442.128 260.872 438.48 260.728C438.57 267.961 441.78 287.287 452.79 283.78C450.834 284.209 459.006 292.297 454.782 293.65C452.532 308.77 440.277 283.567 434.058 283.897C424.758 285.466 435.822 290.062 432.468 292.315C423.669 299.875 440.082 307.804 438.756 295.099C439.836 305.341 443.304 305.026 451.605 304.492C432.642 307.696 462.165 315.043 452.577 321.181C443.076 320.305 437.751 323.851 443.121 333.151C440.601 341.761 449.112 342.139 452.031 345.115L455.22 344.821L457.284 344.551C457.203 344.542 457.116 344.56 457.038 344.548C468.879 340.903 462.756 317.206 475.377 318.754C472.734 327.919 487.32 336.646 479.496 323.353C474.162 316.615 496.797 328.201 486.825 331.513C496.524 344.317 489.687 319.555 496.911 326.284C501.606 334.462 507.105 328.375 508.383 328.069C511.491 327.202 516.18 328.567 517.413 329.296C529.308 340.654 506.145 335.944 505.803 344.629C507.063 350.188 493.083 343.144 490.992 341.629C484.863 325.108 470.901 341.587 460.632 344.242C460.284 344.515 451.848 351.097 450.855 351.97C448.449 366.445 436.815 375.244 432.498 389.887C431.631 398.347 434.436 410.05 433.26 419.179C435.996 430.885 447.072 437.587 456.726 443.317C463.992 447.997 471.567 439.033 479.385 438.931C486.225 428.869 497.175 436.246 503.361 435.502C496.236 446.722 508.659 455.392 505.143 467.53C499.632 474.274 498.081 483.235 495.129 491.284C469.668 516.454 434.67 532 396 532C377.26 532.023 358.704 528.302 341.421 521.056C344.604 518.161 346.461 513.847 350.742 512.611C370.185 517.312 361.722 493.255 374.922 487.813C383.769 471.601 355.53 469.021 345.45 463.117C328.404 460.543 330.006 439.795 314.526 435.307C301.848 433.288 306.447 415.018 297.153 415.996C289.131 417.487 285.948 406.447 281.478 407.236C280.398 408.376 275.88 399.826 271.02 409.246C257.295 406.207 266.898 390.448 261.099 381.625C258.696 377.584 267.957 356.863 258.036 368.905C257.646 368.215 257.382 367.276 257.22 366.175C258.485 359.029 260.303 351.991 262.659 345.127C264.12 343.504 265.8 342.697 267.651 343.306C274.986 341.638 272.547 353.161 273.153 360.298C278.682 362.668 276.093 339.376 287.583 338.833C295.404 330.028 304.473 322.531 313.983 316.468C317.691 319.114 325.671 318.793 331.929 312.919C324.957 311.518 324.456 306.199 333.774 304.105C348.6 297.733 327.084 311.089 339.189 313.015C352.329 316.885 341.187 301.591 347.415 295.609C340.893 291.169 351.36 273.907 339.954 281.575C343.899 278.755 337.764 273.463 341.286 271.399C342.741 275.479 350.076 281.083 352.683 271.675C360.012 272.926 358.983 262.309 362.943 256.597C381.528 250.048 366.141 268.066 365.442 277.006C371.424 294.436 381.513 270.286 392.142 269.686C405.066 270.127 403.59 257.773 403.389 251.161C400.597 250.64 397.78 250.26 394.95 250.021C395.301 250.021 395.649 250 396 250ZM346.137 264.901C348.516 264.61 344.763 269.773 339.633 270.625C332.793 276.328 338.622 268.621 341.538 267.367C343.869 265.699 345.345 264.997 346.137 264.901ZM451.047 268.675C451.254 268.657 451.578 268.714 452.067 268.879C454.269 272.527 449.622 268.789 451.047 268.675ZM330.288 270.391C335.547 270.772 329.943 283.045 324.099 283.651C320.967 283.36 318.828 288.301 316.407 289.915C316.167 290.995 316.599 273.007 324.777 272.314C327.282 270.844 329.073 270.304 330.288 270.391ZM406.002 270.721C403.32 270.832 401.328 271.963 402.423 274.879C403.989 276.388 406.272 276.754 408.351 276.766C421.161 275.176 411.903 270.475 406.002 270.721ZM451.377 273.061C451.947 273.115 453.276 273.619 455.748 274.867C460.74 281.167 448.917 272.836 451.377 273.061ZM426.708 277.687C426.546 277.756 426.411 278.059 426.363 278.722C428.712 281.362 427.413 277.375 426.708 277.687ZM435.78 279.865C435.588 279.814 435.57 280.231 435.954 281.545C438.477 284.419 436.35 280.021 435.78 279.865ZM461.46 279.895C463.524 279.886 469.299 283.477 468.135 287.395C462.558 291.901 465.141 289.495 464.052 284.5C460.317 281.197 460.224 279.901 461.46 279.895ZM326.718 301.663C327.09 301.666 327.696 301.963 328.587 302.803C326.64 304.273 325.608 301.648 326.718 301.663ZM497.388 302.743C497.919 302.68 498.963 303.424 500.706 305.437C502.788 302.017 513.534 309.955 504.21 311.389C502.452 318.403 495.099 303.007 497.391 302.74L497.388 302.743ZM299.079 305.56C299.274 305.515 299.481 305.635 299.688 305.992C296.892 314.233 297.714 305.863 299.079 305.56ZM480.534 314.026C480.63 314.008 480.729 314.01 480.825 314.032C482.505 314.311 489.126 318.076 491.766 320.698C493.383 324.316 486.465 317.872 485.064 318.292C481.146 315.37 480.066 314.167 480.534 314.026ZM295.629 314.095C295.971 314.164 296.238 314.515 296.313 315.325C291.252 318.844 294.147 313.795 295.629 314.095ZM500.76 320.8C501.018 320.689 501.762 321.106 503.298 322.552C503.568 326.218 499.983 321.13 500.76 320.8ZM469.938 327.742C469.317 327.841 468.363 328.924 467.061 331.798C470.691 336.034 471.801 327.448 469.938 327.742ZM508.149 330.766C507.471 330.856 506.76 331.615 506.286 333.577C511.926 336.268 510.183 330.502 508.149 330.766ZM398.529 339.106C397.8 339.04 396.78 339.346 395.538 340.375C400.32 342.847 400.725 339.298 398.532 339.103L398.529 339.106ZM405.147 341.359C404.847 341.248 404.253 341.455 403.242 342.304C404.283 344.908 406.041 341.695 405.147 341.359ZM428.967 356.593C428.676 356.662 428.298 356.983 427.812 357.712C429.654 360.76 430.215 356.293 428.967 356.593ZM278.466 357.877C278.193 357.88 278.028 358.561 278.19 360.514C281.118 364 279.288 357.868 278.466 357.877ZM276.837 362.827C276.564 362.782 276.153 363.595 275.607 366.016C277.257 370.819 277.662 362.968 276.837 362.827ZM268.458 365.359C262.635 364.759 273.351 375.04 273.774 379.573C284.559 382.483 272.265 385.777 281.385 389.452C295.116 394.396 286.629 383.353 280.806 381.028C283.089 377.359 275.013 374.653 272.046 366.331C270.459 365.752 269.292 365.446 268.458 365.359ZM438.567 367.657C437.949 367.657 437.268 368.797 436.98 372.196C441.006 373.165 439.929 367.657 438.567 367.657ZM279.792 370.105C279.754 370.094 279.714 370.09 279.675 370.095C279.635 370.101 279.598 370.114 279.564 370.135C279.249 370.336 279.228 371.314 280.104 373.444L280.782 373.894C281.343 371.905 280.389 370.258 279.792 370.105ZM428.31 370.357C426.546 370.459 425.409 371.257 426.66 373.345L427.188 373.591H430.185C439.086 373.297 432.186 370.135 428.31 370.357ZM271.44 381.292C270.651 381.124 270.54 382.039 272.43 385.228C278.202 387.235 273.18 381.658 271.44 381.292ZM255.333 381.742C257.334 390.409 258.609 400.486 262.323 408.103C264.777 417.427 266.586 405.691 267.198 413.038C269.28 426.916 260.82 441.214 271.23 454.522C276.18 467.941 287.052 477.343 294.66 489.028C270.12 463.66 255 429.118 255 391C255 387.886 255.135 384.805 255.333 381.742ZM291.228 389.746C290.508 389.836 289.866 390.604 289.692 392.587C296.304 395.29 293.391 389.473 291.228 389.746ZM301.758 400.681C301.467 400.564 301.164 401.878 300.966 405.823L301.086 407.998C303.426 414.25 302.634 401.026 301.758 400.681ZM406.986 409.486C406.239 409.405 406.23 409.987 408.306 411.958C413.847 413.056 408.63 409.666 406.986 409.486ZM415.044 411.331C414.699 411.337 414.249 411.586 413.685 412.234C415.983 415.846 416.535 411.304 415.044 411.331ZM413.706 415.282C413.178 415.366 412.437 415.717 411.435 416.476C414.192 419.452 415.995 414.91 413.706 415.282ZM409.836 415.861C409.554 415.831 409.128 416.245 408.546 417.496C410.196 420.034 410.676 415.951 409.836 415.861ZM497.496 443.8C497.214 443.77 496.788 444.181 496.206 445.435C497.856 447.973 498.339 443.887 497.496 443.8Z"/>
</mask>
<path d="M396 241C313.212 241 246 308.212 246 391C246 473.788 313.212 541 396 541C478.638 541 545.733 474.028 545.976 391.444C545.991 391.296 545.999 391.148 546 391C546 390.867 545.994 390.734 545.982 390.601C545.766 307.996 478.656 241 396 241ZM396 250C402.573 250 409.032 250.486 415.365 251.353C415.095 251.713 415.833 252.523 418.413 254.002L421.482 255.046C425.322 254.569 423.687 253.255 421.152 252.28C430.42 253.944 439.495 256.54 448.242 260.026C445.818 260.572 442.128 260.872 438.48 260.728C438.57 267.961 441.78 287.287 452.79 283.78C450.834 284.209 459.006 292.297 454.782 293.65C452.532 308.77 440.277 283.567 434.058 283.897C424.758 285.466 435.822 290.062 432.468 292.315C423.669 299.875 440.082 307.804 438.756 295.099C439.836 305.341 443.304 305.026 451.605 304.492C432.642 307.696 462.165 315.043 452.577 321.181C443.076 320.305 437.751 323.851 443.121 333.151C440.601 341.761 449.112 342.139 452.031 345.115L455.22 344.821L457.284 344.551C457.203 344.542 457.116 344.56 457.038 344.548C468.879 340.903 462.756 317.206 475.377 318.754C472.734 327.919 487.32 336.646 479.496 323.353C474.162 316.615 496.797 328.201 486.825 331.513C496.524 344.317 489.687 319.555 496.911 326.284C501.606 334.462 507.105 328.375 508.383 328.069C511.491 327.202 516.18 328.567 517.413 329.296C529.308 340.654 506.145 335.944 505.803 344.629C507.063 350.188 493.083 343.144 490.992 341.629C484.863 325.108 470.901 341.587 460.632 344.242C460.284 344.515 451.848 351.097 450.855 351.97C448.449 366.445 436.815 375.244 432.498 389.887C431.631 398.347 434.436 410.05 433.26 419.179C435.996 430.885 447.072 437.587 456.726 443.317C463.992 447.997 471.567 439.033 479.385 438.931C486.225 428.869 497.175 436.246 503.361 435.502C496.236 446.722 508.659 455.392 505.143 467.53C499.632 474.274 498.081 483.235 495.129 491.284C469.668 516.454 434.67 532 396 532C377.26 532.023 358.704 528.302 341.421 521.056C344.604 518.161 346.461 513.847 350.742 512.611C370.185 517.312 361.722 493.255 374.922 487.813C383.769 471.601 355.53 469.021 345.45 463.117C328.404 460.543 330.006 439.795 314.526 435.307C301.848 433.288 306.447 415.018 297.153 415.996C289.131 417.487 285.948 406.447 281.478 407.236C280.398 408.376 275.88 399.826 271.02 409.246C257.295 406.207 266.898 390.448 261.099 381.625C258.696 377.584 267.957 356.863 258.036 368.905C257.646 368.215 257.382 367.276 257.22 366.175C258.485 359.029 260.303 351.991 262.659 345.127C264.12 343.504 265.8 342.697 267.651 343.306C274.986 341.638 272.547 353.161 273.153 360.298C278.682 362.668 276.093 339.376 287.583 338.833C295.404 330.028 304.473 322.531 313.983 316.468C317.691 319.114 325.671 318.793 331.929 312.919C324.957 311.518 324.456 306.199 333.774 304.105C348.6 297.733 327.084 311.089 339.189 313.015C352.329 316.885 341.187 301.591 347.415 295.609C340.893 291.169 351.36 273.907 339.954 281.575C343.899 278.755 337.764 273.463 341.286 271.399C342.741 275.479 350.076 281.083 352.683 271.675C360.012 272.926 358.983 262.309 362.943 256.597C381.528 250.048 366.141 268.066 365.442 277.006C371.424 294.436 381.513 270.286 392.142 269.686C405.066 270.127 403.59 257.773 403.389 251.161C400.597 250.64 397.78 250.26 394.95 250.021C395.301 250.021 395.649 250 396 250ZM346.137 264.901C348.516 264.61 344.763 269.773 339.633 270.625C332.793 276.328 338.622 268.621 341.538 267.367C343.869 265.699 345.345 264.997 346.137 264.901ZM451.047 268.675C451.254 268.657 451.578 268.714 452.067 268.879C454.269 272.527 449.622 268.789 451.047 268.675ZM330.288 270.391C335.547 270.772 329.943 283.045 324.099 283.651C320.967 283.36 318.828 288.301 316.407 289.915C316.167 290.995 316.599 273.007 324.777 272.314C327.282 270.844 329.073 270.304 330.288 270.391ZM406.002 270.721C403.32 270.832 401.328 271.963 402.423 274.879C403.989 276.388 406.272 276.754 408.351 276.766C421.161 275.176 411.903 270.475 406.002 270.721ZM451.377 273.061C451.947 273.115 453.276 273.619 455.748 274.867C460.74 281.167 448.917 272.836 451.377 273.061ZM426.708 277.687C426.546 277.756 426.411 278.059 426.363 278.722C428.712 281.362 427.413 277.375 426.708 277.687ZM435.78 279.865C435.588 279.814 435.57 280.231 435.954 281.545C438.477 284.419 436.35 280.021 435.78 279.865ZM461.46 279.895C463.524 279.886 469.299 283.477 468.135 287.395C462.558 291.901 465.141 289.495 464.052 284.5C460.317 281.197 460.224 279.901 461.46 279.895ZM326.718 301.663C327.09 301.666 327.696 301.963 328.587 302.803C326.64 304.273 325.608 301.648 326.718 301.663ZM497.388 302.743C497.919 302.68 498.963 303.424 500.706 305.437C502.788 302.017 513.534 309.955 504.21 311.389C502.452 318.403 495.099 303.007 497.391 302.74L497.388 302.743ZM299.079 305.56C299.274 305.515 299.481 305.635 299.688 305.992C296.892 314.233 297.714 305.863 299.079 305.56ZM480.534 314.026C480.63 314.008 480.729 314.01 480.825 314.032C482.505 314.311 489.126 318.076 491.766 320.698C493.383 324.316 486.465 317.872 485.064 318.292C481.146 315.37 480.066 314.167 480.534 314.026ZM295.629 314.095C295.971 314.164 296.238 314.515 296.313 315.325C291.252 318.844 294.147 313.795 295.629 314.095ZM500.76 320.8C501.018 320.689 501.762 321.106 503.298 322.552C503.568 326.218 499.983 321.13 500.76 320.8ZM469.938 327.742C469.317 327.841 468.363 328.924 467.061 331.798C470.691 336.034 471.801 327.448 469.938 327.742ZM508.149 330.766C507.471 330.856 506.76 331.615 506.286 333.577C511.926 336.268 510.183 330.502 508.149 330.766ZM398.529 339.106C397.8 339.04 396.78 339.346 395.538 340.375C400.32 342.847 400.725 339.298 398.532 339.103L398.529 339.106ZM405.147 341.359C404.847 341.248 404.253 341.455 403.242 342.304C404.283 344.908 406.041 341.695 405.147 341.359ZM428.967 356.593C428.676 356.662 428.298 356.983 427.812 357.712C429.654 360.76 430.215 356.293 428.967 356.593ZM278.466 357.877C278.193 357.88 278.028 358.561 278.19 360.514C281.118 364 279.288 357.868 278.466 357.877ZM276.837 362.827C276.564 362.782 276.153 363.595 275.607 366.016C277.257 370.819 277.662 362.968 276.837 362.827ZM268.458 365.359C262.635 364.759 273.351 375.04 273.774 379.573C284.559 382.483 272.265 385.777 281.385 389.452C295.116 394.396 286.629 383.353 280.806 381.028C283.089 377.359 275.013 374.653 272.046 366.331C270.459 365.752 269.292 365.446 268.458 365.359ZM438.567 367.657C437.949 367.657 437.268 368.797 436.98 372.196C441.006 373.165 439.929 367.657 438.567 367.657ZM279.792 370.105C279.754 370.094 279.714 370.09 279.675 370.095C279.635 370.101 279.598 370.114 279.564 370.135C279.249 370.336 279.228 371.314 280.104 373.444L280.782 373.894C281.343 371.905 280.389 370.258 279.792 370.105ZM428.31 370.357C426.546 370.459 425.409 371.257 426.66 373.345L427.188 373.591H430.185C439.086 373.297 432.186 370.135 428.31 370.357ZM271.44 381.292C270.651 381.124 270.54 382.039 272.43 385.228C278.202 387.235 273.18 381.658 271.44 381.292ZM255.333 381.742C257.334 390.409 258.609 400.486 262.323 408.103C264.777 417.427 266.586 405.691 267.198 413.038C269.28 426.916 260.82 441.214 271.23 454.522C276.18 467.941 287.052 477.343 294.66 489.028C270.12 463.66 255 429.118 255 391C255 387.886 255.135 384.805 255.333 381.742ZM291.228 389.746C290.508 389.836 289.866 390.604 289.692 392.587C296.304 395.29 293.391 389.473 291.228 389.746ZM301.758 400.681C301.467 400.564 301.164 401.878 300.966 405.823L301.086 407.998C303.426 414.25 302.634 401.026 301.758 400.681ZM406.986 409.486C406.239 409.405 406.23 409.987 408.306 411.958C413.847 413.056 408.63 409.666 406.986 409.486ZM415.044 411.331C414.699 411.337 414.249 411.586 413.685 412.234C415.983 415.846 416.535 411.304 415.044 411.331ZM413.706 415.282C413.178 415.366 412.437 415.717 411.435 416.476C414.192 419.452 415.995 414.91 413.706 415.282ZM409.836 415.861C409.554 415.831 409.128 416.245 408.546 417.496C410.196 420.034 410.676 415.951 409.836 415.861ZM497.496 443.8C497.214 443.77 496.788 444.181 496.206 445.435C497.856 447.973 498.339 443.887 497.496 443.8Z" fill="#009F00" stroke="#009F00" stroke-width="2" mask="url(#path-8-inside-1_205_172)"/>
</svg>
